<?xml version="1.0" encoding="utf-8"?>
<!-- Generator: Adobe Illustrator 24.1.2, SVG Export Plug-In . SVG Version: 6.00 Build 0)  -->
<svg version="1.1" id="Capa_1" xmlns="http://www.w3.org/2000/svg" xmlns:xlink="http://www.w3.org/1999/xlink" x="0px" y="0px"
	 viewBox="0 0 16.7 16.7" style="enable-background:new 0 0 16.7 16.7;" xml:space="preserve">
<style type="text/css">
	.st0{fill:#999999;}
</style>
<g id="Capa_2_1_">
	<g id="Capa_1-2">
		<g id="Icon_2">
			<g id="Icon-2">
				<g id="Path-2">
					<path class="st0" d="M0.8,16.7c-0.1,0-0.2,0-0.3-0.1C0.2,16.5,0,16.2,0,15.8V2.5C0,1.1,1.1,0,2.5,0h11.7c1.4,0,2.5,1.1,2.5,2.5
						v8.3c0,1.4-1.1,2.5-2.5,2.5H4.5l-3.1,3.1C1.3,16.6,1,16.7,0.8,16.7z M2.5,1.7C2,1.7,1.7,2,1.7,2.5v11.3l1.9-1.9
						c0.2-0.2,0.4-0.2,0.6-0.2h10c0.2,0,0.4-0.1,0.6-0.2c0.2-0.2,0.2-0.4,0.2-0.6c0,0,0,0,0,0V2.5c0-0.5-0.4-0.8-0.8-0.8H2.5z"/>
				</g>
			</g>
		</g>
	</g>
</g>
</svg>
