<svg xmlns="http://www.w3.org/2000/svg" viewBox="0 0 334.04 348.17"><defs><style>.cls-1{fill:#fff;}</style></defs><g id="Capa_2" data-name="Capa 2"><g id="Capa_1-2" data-name="Capa 1"><g id="event"><path id="Trazado_16" data-name="Trazado 16" class="cls-1" d="M333.58,129.08V75.4a38.28,38.28,0,0,0-38.24-38.24H285.28v-6a31.13,31.13,0,0,0-62.26,0v6H110.56v-6a31.13,31.13,0,1,0-62.25,0v6H38.23A38.29,38.29,0,0,0,0,75.4V309.93a38.28,38.28,0,0,0,38.23,38.24H295.34a38.28,38.28,0,0,0,38.24-38.24V134.6A8.55,8.55,0,0,0,333.58,129.08ZM254.15,17.41a13.74,13.74,0,0,1,13.72,13.72V49.46a13.72,13.72,0,0,1-27.44,0V31.13A13.72,13.72,0,0,1,254.15,17.41ZM65.71,31.13a13.72,13.72,0,0,1,27.44,0V49.46a13.72,13.72,0,0,1-27.44,0ZM38.23,54.57h10.5a31.12,31.12,0,0,0,61.4,0H223.45a31.12,31.12,0,0,0,61.4,0h10.5A20.85,20.85,0,0,1,316.17,75.4v47.74H17.41V75.4A20.86,20.86,0,0,1,38.23,54.57ZM295.34,330.76H38.23a20.85,20.85,0,0,1-20.82-20.83V140.54H316.17V309.93A20.85,20.85,0,0,1,295.34,330.76Z"/><path id="Trazado_17" data-name="Trazado 17" class="cls-1" d="M219.82,218.15l-31.29-4.45-14-27.74A8.71,8.71,0,0,0,159,186l-14,27.74-31.29,4.45A8.71,8.71,0,0,0,109,233.07l22.53,21.54L126.2,285a8.71,8.71,0,0,0,12.56,9.24l28-14.44,28,14.44A8.7,8.7,0,0,0,207.38,285l-5.31-30.36,22.54-21.54a8.7,8.7,0,0,0-4.79-14.91Zm-33.14,27.08a8.7,8.7,0,0,0-2.56,7.79l3.09,17.68-16.43-8.47a8.71,8.71,0,0,0-8,0l-16.43,8.47L149.46,253a8.67,8.67,0,0,0-2.56-7.79L134,232.86l18-2.57a8.69,8.69,0,0,0,6.55-4.7l8.23-16.35L175,225.59a8.67,8.67,0,0,0,6.54,4.7l18.05,2.57Z"/></g></g></g></svg>