<svg xmlns="http://www.w3.org/2000/svg" viewBox="0 0 287.75 287.77"><defs><style>.cls-1{fill:#fff;}</style></defs><g id="Capa_2" data-name="Capa 2"><g id="Capa_1-2" data-name="Capa 1"><g id="Grupo_28" data-name="Grupo 28"><path id="instagram" class="cls-1" d="M146.71,287.76h-2.86c-22.56.06-43.4-.52-63.67-1.75-18.58-1.13-35.54-7.55-49.05-18.57-13-10.63-21.94-25-26.46-42.72C.73,209.3.52,194.16.32,179.52.18,169,0,156.57,0,143.91s.18-25.16.32-35.67C.52,93.6.73,78.46,4.67,63,9.19,45.33,18.09,31,31.13,20.32,44.64,9.31,61.6,2.89,80.18,1.76,100.45.52,121.3,0,143.9,0s43.4.52,63.67,1.76c18.58,1.13,35.54,7.55,49.05,18.56,13,10.63,21.94,25,26.46,42.72,3.93,15.42,4.14,30.56,4.34,45.2.15,10.51.3,23,.33,35.61v.06c0,12.66-.18,25.1-.33,35.61-.2,14.64-.4,29.78-4.34,45.2-4.52,17.71-13.42,32.09-26.46,42.72-13.51,11-30.47,17.43-49.05,18.56C188.16,287.19,168.22,287.76,146.71,287.76Zm-2.86-22.48c22.19.05,42.56-.51,62.35-1.71,14.05-.86,26.24-5.42,36.22-13.56,9.22-7.52,15.58-17.9,18.88-30.85s3.46-26.62,3.65-39.95c.14-10.43.29-22.8.32-35.33s-.18-24.9-.32-35.33c-.19-13.33-.37-27.11-3.65-39.95s-9.66-23.33-18.88-30.85c-10-8.14-22.17-12.7-36.22-13.55C186.41,23,166,22.43,143.9,22.48S101.34,23,81.55,24.2c-14,.85-26.23,5.41-36.21,13.55-9.23,7.52-15.58,17.9-18.89,30.85s-3.46,26.62-3.65,40c-.14,10.44-.29,22.81-.32,35.36s.18,24.86.32,35.3c.18,13.33.37,27.11,3.65,39.95S36.1,242.49,45.33,250c10,8.14,22.16,12.7,36.21,13.55,19.8,1.21,40.18,1.77,62.31,1.72Zm-.54-51.15a70.25,70.25,0,1,1,70.26-70.25,70.25,70.25,0,0,1-70.26,70.25Zm0-118a47.77,47.77,0,1,0,47.77,47.77h0a47.82,47.82,0,0,0-47.77-47.77Zm78.12-45A16.87,16.87,0,1,0,238.3,68a16.87,16.87,0,0,0-16.87-16.87Z"/></g></g></g></svg>