<?xml version="1.0" encoding="utf-8"?>
<!-- Generator: Adobe Illustrator 24.1.2, SVG Export Plug-In . SVG Version: 6.00 Build 0)  -->
<svg version="1.1" id="Capa_1" xmlns="http://www.w3.org/2000/svg" xmlns:xlink="http://www.w3.org/1999/xlink" x="0px" y="0px"
	 viewBox="0 0 19 16.9" style="enable-background:new 0 0 19 16.9;" xml:space="preserve">
<style type="text/css">
	.st0{fill:#999999;}
</style>
<g id="Capa_2_1_">
	<g id="Capa_1-2">
		<g id="Icon_">
			<g id="Icon">
				<g id="Path">
					<path class="st0" d="M9.5,16.8c-0.2,0-0.4-0.1-0.6-0.2L1.5,9.2c-2.1-2.1-2.1-5.5,0-7.7c1-1,2.4-1.6,3.8-1.6s2.8,0.6,3.8,1.6
						l0.3,0.3l0.3-0.3c1-1,2.4-1.6,3.8-1.6l0,0c1.4,0,2.7,0.5,3.7,1.5l0.1,0.1c2.1,2.1,2.1,5.5,0,7.7l-7.4,7.3
						C9.9,16.8,9.7,16.8,9.5,16.8z M5.4,1.7c-1,0-1.9,0.4-2.6,1.1c-1.5,1.5-1.5,3.8,0,5.3L3.6,9l5.9,5.9l6.8-6.8
						c1.4-1.4,1.5-3.7,0.1-5.2l-0.1-0.1c-0.7-0.7-1.6-1.1-2.6-1.1l0,0c-1,0-1.9,0.4-2.6,1.1l-0.9,0.9C9.8,4,9.2,4,8.9,3.7L8,2.8
						C7.3,2.1,6.4,1.7,5.4,1.7z"/>
				</g>
			</g>
		</g>
	</g>
</g>
</svg>
