<svg xmlns="http://www.w3.org/2000/svg" width="45.757" height="45.757" viewBox="0 0 45.757 45.757"><path d="M375.1,486.04a22.878,22.878,0,1,0,22.878,22.878A22.878,22.878,0,0,0,375.1,486.04Zm-4.054,19.882c-3.669,0-1.854,4.471-3.543,4.471-3.3,0-7.807-14.448,6.522-14.448,6.259,0,9.406,2.332,9.406,5.328C383.435,505.589,379.676,505.922,371.05,505.922Zm19.29,9.911c0,1.648-1.405,2.525-2.917,2.738a25.808,25.808,0,0,1-1.444,3.092c-1.513,2.711-3.12,4.085-4.779,4.085v-2.039c1.575,0,3.636-3.842,4.533-6.438l.237-.685.724,0c.012,0,1.452-.054,1.6-.651-1.625-5.788-2.565-10.079-2.567-14.762-.018-.379-.5-7.043-11.611-7.043-10.088,0-12.205,5.447-12.205,10.017,0,4.664,3.171,9.073,6.524,9.073v2.039a7.812,7.812,0,0,1-6.115-3.532,13.07,13.07,0,0,1-2.449-7.58,11.412,11.412,0,0,1,3.343-8.579c2.45-2.307,6.118-3.476,10.9-3.476,3.765,0,8.864.764,11.77,4.406a8.417,8.417,0,0,1,1.88,4.631v.026c0,4.5.932,8.692,2.541,14.405l.038.136Z" transform="translate(-352.225 -486.04)" fill="#fcd46d"/></svg>