<svg xmlns="http://www.w3.org/2000/svg" viewBox="0 0 1920 1227.8"><defs><style>.cls-1{fill:#fff;}</style></defs><g id="Capa_2" data-name="Capa 2"><g id="Capa_1-2" data-name="Capa 1"><g id="Grupo_29" data-name="Grupo 29"><path id="Trazado_1" data-name="Trazado 1" class="cls-1" d="M1713.88,8.73A65.89,65.89,0,0,1,1723.36,0H917.2a79.19,79.19,0,0,1-10.6,44.54l-95,163.06-92.7,159.18,305.14-263.1c17-14.67,34.94-22.75,57.33-23.75,17.77-.8,35.46,6.85,49.14,17.41,14.28,11,23.52,25,29,42.12a70.23,70.23,0,0,1,2.84,24.2l59-68.76c13.9-16.19,36.8-22.82,57.34-23.74,21.6-1,41.89,9.56,57.34,23.74,14.91,13.7,23.75,37.45,23.75,57.34,0,14.63-3.88,26.52-10.17,37.67l16.33-15.68c29.4-28.24,74.39-31.12,106.47-6.34,23,17.76,35.45,48.45,31.11,77.09Z"/><path id="Trazado_2" data-name="Trazado 2" class="cls-1" d="M501.79,86.9c17.05-14.65,34.93-22.75,57.34-23.75,17.76-.8,35.45,6.84,49.13,17.41a81.84,81.84,0,0,1,18.47,19.8Q675.63,50,724.9,0H490.63c-4.19,9.62-10.23,18.46-17.43,27.15q-76.56,92.34-150.06,187.16Q294.31,251.74,266,289.54Z"/><path id="Trazado_3" data-name="Trazado 3" class="cls-1" d="M1820.34,2.39c14.28,11,23.53,25,29.06,42.12,6,18.47,2.57,46.2-8.17,62.49Q1766.65,220,1694,334.28l-4.3,6.8a85.75,85.75,0,0,1,30-16.64c20.87-6.75,43.67-1.76,62.49,8.18,17.54,9.27,32.08,29.65,37.26,48.46,5.95,21.6,1.66,42.94-8.18,62.48l-6.84,13.61,14.33-17.4c13.45-16.34,37.06-22.85,57.34-23.75,15.6-.7,31.15,5.11,44,13.7V0h-103C1818.17.77,1819.27,1.57,1820.34,2.39Z"/><path id="Trazado_4" data-name="Trazado 4" class="cls-1" d="M271.62,0H0V273.58Z"/><path id="Trazado_5" data-name="Trazado 5" class="cls-1" d="M1875.43,1134.3c-20.21.9-43.3-9.69-57.38-23.75-16.15-16.15-21.6-35.33-23.76-57.34a696.63,696.63,0,0,1,3-159.4L1744,938.45c-17.29,14.49-34.81,22.74-57.37,23.75-17.78.8-35.48-6.84-49.17-17.41a83.08,83.08,0,0,1-13.91-13.57l-159,193c-13.47,16.34-37.09,22.85-57.38,23.75-17.77.8-35.47-6.84-49.16-17.41-33.17-25.6-39.23-68.17-20.9-104.6l1.18-2.33q-73.69,79.62-150.36,156.5c-28.77,28.81-74.94,30.74-106.54,6.34-32.17-24.84-40.65-69.06-20.9-104.6q65.77-118.39,133.5-235.69,7.86-13.6,15.78-27.2L978.27,1078.92c-27,30.3-76.26,29.71-106.53,6.34-30.72-23.71-42.64-70.43-20.9-104.6l111.33-175,30.19-47.44-30.88,29.64L629.3,1106.76a81.33,81.33,0,0,1-80.48,19.6l-24.32,28.3c-26.42,30.75-76.68,29.39-106.54,6.34-14.29-11-23.54-25-29.07-42.12-6-18.52-2.55-46.13,8.18-62.48q67.41-102.77,134.84-205.53,82.44-125.68,164.9-251.37L461.88,801.94c-17,14.66-35,22.74-57.38,23.75-17.77.8-35.47-6.85-49.16-17.42-31.67-24.44-41.34-69.52-20.9-104.6q44-75.57,88.09-151.14Q312.82,671,205.1,791.37c-27.07,30.24-76.2,29.76-106.54,6.34-14.28-11-23.54-25-29.07-42.12-5.82-18-2.84-46.73,8.18-62.49l48.51-69.4L0,732.06V1227.8H1920V1121.22C1906.84,1129.65,1890.93,1133.6,1875.43,1134.3Z"/></g></g></g></svg>