<?xml version="1.0" encoding="utf-8"?>
<!-- Generator: Adobe Illustrator 24.1.2, SVG Export Plug-In . SVG Version: 6.00 Build 0)  -->
<svg version="1.1" id="Capa_1" xmlns="http://www.w3.org/2000/svg" xmlns:xlink="http://www.w3.org/1999/xlink" x="0px" y="0px"
	 viewBox="0 0 24 24" style="enable-background:new 0 0 24 24;" xml:space="preserve">
<style type="text/css">
	.st0{fill:#FCFCFC;fill-opacity:0;}
	.st1{fill:#576262;}
</style>
<g id="Capa_2_1_">
	<g id="Capa_1-2">
		<g id="Icon_2">
			<rect id="Area_ICON:feather_phone_SIZE:LARGE_STYLE:STYLE1_" class="st0" width="24" height="24"/>
			<g id="Icon-2">
				<g id="Path-3">
					<path class="st1" d="M20,23h-0.2c0,0-0.1,0-0.1,0c-3.2-0.3-6.4-1.5-9.1-3.2c-2.5-1.6-4.7-3.8-6.3-6.3c-1.8-2.7-2.9-5.9-3.2-9.1
						C1,2.7,2.2,1.2,3.8,1.1l3.3,0c0,0,0,0,0,0c1.5,0,2.8,1.1,3,2.6c0.1,0.9,0.3,1.8,0.6,2.6c0.4,1.1,0.1,2.3-0.7,3.2l-0.7,0.7
						c1.2,1.8,2.7,3.4,4.6,4.6l0.7-0.7c0.8-0.8,2.1-1.1,3.2-0.7c0.8,0.3,1.7,0.5,2.6,0.6c1.5,0.2,2.6,1.5,2.6,3v3
						C23,21.7,21.7,23,20,23z M19.9,21H20c0.6,0,1-0.4,1-1v-3c0,0,0,0,0,0c0-0.5-0.4-0.9-0.9-1c-1-0.1-2-0.4-3-0.8
						c-0.4-0.1-0.8,0-1.1,0.2l-1.3,1.3c-0.3,0.3-0.8,0.4-1.2,0.2c-2.7-1.5-4.9-3.7-6.4-6.4C7,10.1,7.1,9.6,7.4,9.3L8.7,8
						C8.9,7.8,9,7.3,8.9,7c-0.4-1-0.6-2-0.8-3C8,3.5,7.6,3.1,7.1,3.1H3.9c-0.5,0-0.9,0.5-0.8,1.1C3.4,7.1,4.4,9.9,6,12.4
						c1.4,2.3,3.4,4.3,5.7,5.7C14.2,19.7,17,20.7,19.9,21z"/>
				</g>
			</g>
		</g>
	</g>
</g>
</svg>
